<svg xmlns="http://www.w3.org/2000/svg" xmlns:xlink="http://www.w3.org/1999/xlink" width="208" height="48" viewBox="0 0 208 48"><defs><style>.a,.g{fill:#fff;}.b{clip-path:url(#a);}.c{fill:#442c1e;}.c,.d,.e,.f,.g,.h,.i,.j,.k,.l,.m,.n,.o,.p,.q,.r{fill-rule:evenodd;}.d,.h,.i,.j,.m,.n{fill:none;}.d{stroke:#fff;stroke-width:0.06px;}.e{fill:#ffeee0;}.f{fill:#ffea96;}.h,.i,.j,.m,.n{stroke:#442c1e;}.h,.i,.j{stroke-linecap:round;stroke-linejoin:round;}.h{stroke-width:0.226px;}.i{stroke-width:0.28px;}.j{stroke-width:0.239px;}.k{fill:#ff4d4d;}.l{fill:#ffe784;}.m{stroke-width:0.297px;}.n{stroke-width:0.265px;}.o{fill:#e98f80;}.p{fill:#faf5eb;}.q{fill:#ce7373;}.r{fill:#d74848;}.s{fill:#ffedd5;}.t{fill:#ffdcb1;}</style><clipPath id="a"><rect class="a" width="208" height="48" transform="translate(1583 116)"/></clipPath></defs><g class="b" transform="translate(-1583 -116)"><g transform="translate(1463 115.182)"><g transform="translate(247)"><g transform="translate(0 0.126)"><path class="c" d="M46.774,1.72c1.169,1.1.207,1.671,2.267,1.816,2.116.15,5.071,3.088,4.464,6.325-.569,3.04,2.307,2.2,2.688,4.512.341,2.062-2.5,2.381.278,5.572s-1.163,5.443-3.127,5.738c-2.609.391-2.718,1.234-3.474,2.214-.832,1.081-3.119,1.316-4.458,1.069-1.65-.3-4.986,2.125-6.707,1.838s-1.785-2.561-1.785-2.561.211-2.56-2.915-2.1c-.093.014-.183.025-.271.033-1.7.151-2.83-1.9-2.065-3.624a4.88,4.88,0,0,0,.1-4.184c-1.4-3.162-.069-3.681.608-4.832.759-1.292.818-1.508.239-3.347a3.551,3.551,0,0,1-.154-2.027,2.8,2.8,0,0,1,.733-1.255c.937-1,.8-.619,1.284-1.173.792-.914.539-1.588,1.346-2.5A2.792,2.792,0,0,1,36.9,2.406c1.69-.654,3.43,1.177,4.133.357A5.538,5.538,0,0,1,42,1.553a3.5,3.5,0,0,1,4.778.167"/><path class="d" d="M46.774,1.72c1.169,1.1.207,1.671,2.267,1.816,2.116.15,5.071,3.088,4.464,6.325-.569,3.04,2.307,2.2,2.688,4.512.341,2.062-2.5,2.381.278,5.572s-1.163,5.443-3.127,5.738c-2.609.391-2.718,1.234-3.474,2.214-.832,1.081-3.119,1.316-4.458,1.069-1.65-.3-4.986,2.125-6.707,1.838s-1.785-2.561-1.785-2.561.211-2.56-2.915-2.1c-.093.014-.183.025-.271.033-1.7.151-2.83-1.9-2.065-3.624a4.88,4.88,0,0,0,.1-4.184c-1.4-3.162-.069-3.681.608-4.832.759-1.292.818-1.508.239-3.347a3.551,3.551,0,0,1-.154-2.027,2.8,2.8,0,0,1,.733-1.255c.937-1,.8-.619,1.284-1.173.792-.914.539-1.588,1.346-2.5A2.792,2.792,0,0,1,36.9,2.406c1.69-.654,3.43,1.177,4.133.357A5.538,5.538,0,0,1,42,1.553,3.5,3.5,0,0,1,46.774,1.72Z"/><path class="e" d="M14.262,27.418s-4.532-7.8-5.867-7.85-3-.3-3.266.872-2.178,3.533.015,5.73a19.646,19.646,0,0,1,4.124,6.281Z"/><g transform="translate(6 26)"><path class="f" d="M21.475,28.441h7.153c3.371,2.792,5.543,1.593,5.953,3.508a2.986,2.986,0,0,0,.287,1.006c1.729,2.986,12.4,2.992,17.99-2.287,5.435-5.136,4.216-13.544,2.3-18.2C54.99,12.066,51.193.733,41.662.85,40.055.872,36.749.669,32.571.668c-6.5,0-12.922,7.6-15.936,9.048-1.954.936-2.8-1.924-7.351-8.506C8.835.02.967,1.691.406,4.241c.78,3.49,2.05,14.843,9.451,18.523C13,24.33,20.294,25.171,23.915,20.4"/><path class="d" d="M21.475,28.441h7.153c3.371,2.792,5.543,1.593,5.953,3.508a2.986,2.986,0,0,0,.287,1.006c1.729,2.986,12.4,2.992,17.99-2.287,5.435-5.136,4.216-13.544,2.3-18.2C54.99,12.066,51.193.733,41.662.85,40.055.872,36.749.669,32.571.668c-6.5,0-12.922,7.6-15.936,9.048-1.954.936-2.8-1.924-7.351-8.506C8.835.02.967,1.691.406,4.241c.78,3.49,2.05,14.843,9.451,18.523C13,24.33,20.294,25.171,23.915,20.4"/></g><path class="e" d="M36.959,21.848c2.12,2.084,3.19,1.369,3.412,1.764-.005.195-.019.872.019,1.691a13.067,13.067,0,0,0,.327,2.541c.319,1.213,2.3.931,3.462-.014a2.176,2.176,0,0,0,.788-1.863l-.2-2.431s2.4-.108,3.493-3.282a1.843,1.843,0,0,0,1.571-1.43c.29-1.421-.2-2.069-1.508-1.742a40.3,40.3,0,0,0-.246-5.264A5.246,5.246,0,0,0,42.518,7.5c-4.439.052-5.762,1.061-6.5,2.325-.861,1.47-1.713,9.412.943,12.022"/><path class="g" d="M38.656,13.794a1.264,1.264,0,0,1-1.032,1.472,1.311,1.311,0,0,1-1.329-1.251,1.263,1.263,0,0,1,1.032-1.471,1.311,1.311,0,0,1,1.329,1.25"/><path class="h" d="M49.008,18.01a.834.834,0,0,0-.746.68.806.806,0,0,0,.2.6"/><path class="c" d="M36.493,13.924a.718.718,0,0,0,.535.826.656.656,0,0,0,.731-.6.718.718,0,0,0-.536-.826.654.654,0,0,0-.73.605"/><path class="g" d="M44.759,13.877a1.345,1.345,0,1,1-1.345-1.368,1.357,1.357,0,0,1,1.345,1.368"/><path class="c" d="M42.275,13.924a.718.718,0,0,0,.535.826.656.656,0,0,0,.731-.6A.718.718,0,0,0,43,13.319a.654.654,0,0,0-.73.605"/><path class="i" d="M39.39,14.744s-1.045,1.837-.824,2.023a.957.957,0,0,0,.616.145"/><path class="j" d="M37,11.189a.706.706,0,0,1,.7-.381.747.747,0,0,1,.551.419"/><path class="j" d="M42.406,11.015a.906.906,0,0,1,1.585-.125"/><path class="k" d="M46.2,7.825h0a.415.415,0,0,1-.147-.559l1-1.773a.4.4,0,0,1,.549-.15.415.415,0,0,1,.147.559l-1,1.773a.4.4,0,0,1-.549.15"/><path class="l" d="M47.116,8.363h0a.415.415,0,0,1-.147-.559l1-1.773a.4.4,0,0,1,.549-.15.415.415,0,0,1,.147.559l-1,1.773a.4.4,0,0,1-.549.15"/><path class="m" d="M46.876,14.313a3.028,3.028,0,1,1-3.028-3.086A3.057,3.057,0,0,1,46.876,14.313Z"/><path class="n" d="M39.005,14.233a2.757,2.757,0,0,1-2.53,2.938,2.757,2.757,0,0,1-2.531-2.938A2.758,2.758,0,0,1,36.475,11.3,2.758,2.758,0,0,1,39.005,14.233Z"/><path class="o" d="M15.462,22.6l-10.6,3.944a1.175,1.175,0,0,1-1.512-.721L.33,17.334a1.217,1.217,0,0,1,.705-1.546l10.6-3.944a1.177,1.177,0,0,1,1.513.721l3.02,8.486a1.217,1.217,0,0,1-.7,1.546"/><path class="p" d="M14.019,21.916,5.54,25.071A.941.941,0,0,1,4.33,24.5L1.914,17.706a.975.975,0,0,1,.563-1.238l8.479-3.155a.942.942,0,0,1,1.211.577l2.416,6.789a.974.974,0,0,1-.564,1.237"/><path class="q" d="M7.753,21.891l-1.668.619-.864-2.42a.252.252,0,0,1,.147-.321l1.206-.448a.246.246,0,0,1,.315.15Z"/><path class="q" d="M12.252,20.464,5.91,22.818a.176.176,0,0,1-.226-.108v0a.18.18,0,0,1,.105-.23l6.342-2.354a.175.175,0,0,1,.226.107v0a.18.18,0,0,1-.105.23"/><path class="q" d="M9.838,21.117l-1.668.619L6.907,18.2a.3.3,0,0,1,.176-.386L8.2,17.4a.3.3,0,0,1,.378.18Z"/><path class="q" d="M11.842,20.373l-1.668.619-1.432-4.01a.322.322,0,0,1,.188-.409l1.079-.4a.313.313,0,0,1,.4.191Z"/><path class="e" d="M13.71,26.568A18.931,18.931,0,0,1,12.7,24.916c-.319-.583-.319-.613-.639-1.264A17.848,17.848,0,0,0,10.5,21.258c-.372-.523-.657-.891-.964-.845-.369.054-.6.678-.661,1.088a3.149,3.149,0,0,0,.768,2.442.446.446,0,0,1,.174.292c.013.3-.473.35-.684.687a2.4,2.4,0,0,0-.223.42c-.309.785-.34,1.954,0,2.069.132.045.276-.088.427-.208A4.672,4.672,0,0,1,13.27,26.4a2.871,2.871,0,0,1,.44.172"/></g><path class="r" d="M39.3,18.731a.964.964,0,0,0,.843.588,1.044,1.044,0,0,0,.923-.677,1.186,1.186,0,0,0,.046-.725,1.645,1.645,0,0,1-.951.243,2.179,2.179,0,0,1-.987-.2,2.329,2.329,0,0,0,.126.767"/></g><circle class="s" cx="15" cy="15" r="15" transform="translate(120 14)"/><circle class="t" cx="8" cy="8" r="8" transform="translate(216 21)"/></g></g></svg>