<svg xmlns="http://www.w3.org/2000/svg" width="600" height="336" viewBox="0 0 600 336">
  <g id="组_5" data-name="组 5" transform="translate(-165 -657)">
    <rect id="矩形_2" data-name="矩形 2" width="600" height="336" transform="translate(165 657)" fill="#f3f3f3"/>
    <text id="Sorry_there_is_an_error." data-name="Sorry, there is an error." transform="translate(278 882)" fill="#666" font-size="32" font-family="Tahoma-Bold, Tahoma" font-weight="700"><tspan x="0" y="0">Sorry, there is an error.</tspan></text>
    <text id="You_can_try_to_refresh." data-name="You can try to refresh." transform="translate(331 917)" fill="#666" font-size="24" font-family="Tahoma-Bold, Tahoma" font-weight="700"><tspan x="0" y="0">You can try to refresh.</tspan></text>
    <path id="puzzle_1_" data-name="puzzle (1)" d="M207.2,104.266h-4.4a4.4,4.4,0,0,0-4.4,4.4v13.2a8.8,8.8,0,0,1-8.8,8.8H176.4a4.4,4.4,0,0,1-4.4-4.4v-4.4a8.8,8.8,0,0,0-17.6,0v4.4a4.4,4.4,0,0,1-4.4,4.4H136.8a8.8,8.8,0,0,1-8.8-8.8v-13.2a4.4,4.4,0,0,1,4.4-4.4h4.4a8.8,8.8,0,1,0,0-17.6h-4.4a4.4,4.4,0,0,1-4.4-4.4v-13.2a8.8,8.8,0,0,1,8.8-8.8H150a4.4,4.4,0,0,0,4.4-4.4v-4.4a8.8,8.8,0,0,1,17.6,0v4.4a4.4,4.4,0,0,0,4.4,4.4h13.2a8.8,8.8,0,0,1,8.8,8.8v13.2a4.4,4.4,0,0,0,4.4,4.4h4.4a8.8,8.8,0,0,1,0,17.6Z" transform="translate(306 685.263)" fill="#666"/>
  </g>
</svg>
