<svg xmlns="http://www.w3.org/2000/svg" width="600" height="336" viewBox="0 0 600 336">
  <g id="组_4" data-name="组 4" transform="translate(-798 -289)">
    <rect id="矩形_1" data-name="矩形 1" width="600" height="336" transform="translate(798 289)" fill="#f3f3f3"/>
    <text id="Wait_a_second_please." data-name="Wait a second, please." transform="translate(920 514)" fill="#666" font-size="32" font-family="Tahoma-Bold, Tahoma" font-weight="700"><tspan x="0" y="0">Wait a second, please.</tspan></text>
    <text id="I_m_on_the_way_" data-name="I&apos;m on the way (●&apos;◡&apos;●)" transform="translate(961 551)" fill="#666" font-size="24" font-family="Tahoma-Bold, Tahoma" font-weight="700"><tspan x="0" y="0">I&apos;m on the way (●&apos;</tspan><tspan y="0" font-family="SegoeUISymbol, Segoe UI Symbol" font-weight="400">◡</tspan><tspan y="0">&apos;●)</tspan></text>
    <g id="组_2" data-name="组 2" transform="translate(5.5 3.352)">
      <line id="直线_1" data-name="直线 1" y1="11.538" x2="13.461" transform="translate(1138.032 359.5)" fill="none" stroke="#666" stroke-linecap="round" stroke-width="1"/>
      <line id="直线_4" data-name="直线 4" y1="7.692" x2="10.576" transform="translate(1102.458 367.192)" fill="none" stroke="#666" stroke-linecap="round" stroke-width="1"/>
      <line id="直线_2" data-name="直线 2" y1="13.461" x2="16.345" transform="translate(1052.5 419.957)" fill="none" stroke="#666" stroke-linecap="round" stroke-width="3"/>
      <path id="plane" d="M235.519,162.124c-1.4-.7-2.8-.7-3.5,0L162.1,197.087c-1.4,0-2.1,1.4-2.1,2.8s.7,2.8,1.4,2.8L178.18,213.17a3.294,3.294,0,0,0,4.2-.7l37.06-33.564,1.4.7-33.564,35.662a2.569,2.569,0,0,0-.7,2.1v15.383a3.845,3.845,0,0,0,2.1,3.5,3.075,3.075,0,0,0,3.5-.7l8.391-8.391,16.782,11.188a2.569,2.569,0,0,0,2.1.7h1.4c1.4-.7,2.1-1.4,2.1-2.8l13.985-69.925C236.917,164.222,236.917,162.824,235.519,162.124Z" transform="translate(897.749 204.082)" fill="#666"/>
      <line id="直线_3" data-name="直线 3" y1="11.538" x2="11.538" transform="translate(1135.147 377.768)" fill="none" stroke="#666" stroke-linecap="round" stroke-width="2"/>
    </g>
  </g>
</svg>
