<svg xmlns="http://www.w3.org/2000/svg" width="600" height="336" viewBox="0 0 600 336"><g transform="translate(-798 -289)"><rect width="600" height="336" transform="translate(798 289)" fill="#f3f3f3"/><text transform="translate(920 514)" fill="#666" font-size="32" font-family="Tahoma-Bold, Tahoma" font-weight="700"><tspan x="0" y="0">Sorry, not yet opened.</tspan></text><text transform="translate(913 551)" fill="#666" font-size="24" font-family="Tahoma-Bold, Tahoma" font-weight="700"><tspan x="0" y="0">Hope to see you soon (o^_^o)</tspan></text><path d="M102.905,81.219H41.043a3.662,3.662,0,0,0-3.666,3.666V111.92H10.341a3.662,3.662,0,0,0-3.666,3.666v31.16a3.662,3.662,0,0,0,3.666,3.666H72.2a3.662,3.662,0,0,0,3.666-3.666V119.71h27.036a3.662,3.662,0,0,0,3.666-3.666V84.884a3.662,3.662,0,0,0-3.666-3.666Zm-34.826,61.4H45.167V119.71H68.079v22.912Zm30.7-30.7H75.869V89.009H98.781V111.92Z" transform="translate(1041.324 291.781)" fill="#666"/><line y1="16" transform="translate(1048.5 377.5)" fill="none" stroke="#707070" stroke-linecap="round" stroke-width="2"/><line y2="21" transform="translate(1146.5 419.5)" fill="none" stroke="#707070" stroke-linecap="round" stroke-width="2"/><line y1="9" transform="translate(1053.5 384.5)" fill="none" stroke="#707070" stroke-linecap="round" stroke-width="1"/></g></svg>