<?xml version="1.0" encoding="utf-8"?>
<!-- Generator: Adobe Illustrator 19.0.0, SVG Export Plug-In . SVG Version: 6.00 Build 0)  -->
<svg version="1.1" id="图层_1" xmlns="http://www.w3.org/2000/svg" xmlns:xlink="http://www.w3.org/1999/xlink" x="0px" y="0px"
	 viewBox="30 151 960 600" style="enable-background:new 30 151 960 600;" xml:space="preserve">
<style type="text/css">
	.st0{fill:#960000;}
	.st1{font-family:'STZhongsong';}
	.st2{font-size:154.3408px;}
	.st3{font-size:145.0804px;}
	.st4{fill:#0B0672;}
	.st5{font-size:92.6045px;}
	.st6{fill:#969696;}
	.st7{font-size:69.4534px;}
	.st8{font-size:66.3666px;}
	.st9{font-size:61.7363px;}
	.st10{font-size:57.1061px;}
	.st11{font-size:55.5627px;}
	.st12{font-size:54.0193px;}
	.st13{font-size:50.9325px;}
	.st14{font-size:49.3891px;}
	.st15{font-size:47.8457px;}
	.st16{font-size:46.3023px;}
	.st17{font-size:44.7588px;}
	.st18{font-size:43.2154px;}
	.st19{font-size:41.672px;}
	.st20{font-size:40.1286px;}
	.st21{font-size:35.4984px;}
</style>
<g transform="translate(480,300)scale(1.5434083938598633,1.5434083938598633)">
	<text transform="matrix(0.6479 0 0 0.6479 -139.0148 53.2793)" class="st0 st1 st2">快乐</text>
	<text transform="matrix(0.6479 0 0 0.6479 54.3162 190.3355)" class="st0 st1 st3">幸福</text>
	<text transform="matrix(0.6479 0 0 0.6479 152.8161 48.3353)" class="st4 st1 st5">寂寞</text>
	<text transform="matrix(0.6479 0 0 0.6479 208.0661 95.3358)" class="st6 st1 st7">浪漫</text>
	<text transform="matrix(0.6479 0 0 0.6479 -215.4335 135.3358)" class="st6 st1 st8">愉快</text>
	<text transform="matrix(0.6479 0 0 0.6479 -178.1837 174.3358)" class="st6 st1 st9">灿烂</text>
	<text transform="matrix(0.6479 0 0 0.6479 48.0661 232.3353)" class="st6 st1 st10">珍惜</text>
	<text transform="matrix(0.6479 0 0 0.6479 98.8163 108.3353)" class="st6 st1 st11">平凡</text>
	<text transform="matrix(0.6479 0 0 0.6479 153.5664 232.3353)" class="st6 st1 st12">孤单</text>
	<text transform="matrix(0.6479 0 0 0.6479 -248.9334 23.3357)" class="st6 st1 st13">残忍</text>
	<text transform="matrix(0.6479 0 0 0.6479 76.5081 39.3355)" class="st6 st1 st14">自由</text>
	<text transform="matrix(0.6479 0 0 0.6479 -18.1834 237.3353)" class="st6 st1 st14">完美</text>
	<text transform="matrix(0.6479 0 0 0.6479 222.5664 148.3353)" class="st6 st1 st15">温柔</text>
	<text transform="matrix(0.6479 0 0 0.6479 -93.6834 107.3357)" class="st6 st1 st16">甜蜜</text>
	<text transform="matrix(0.6479 0 0 0.6479 -26.9334 93.3357)" class="st6 st1 st17">缠绵</text>
	<text transform="matrix(0.6479 0 0 0.6479 -169.1834 240.3355)" class="st6 st1 st18">紧要</text>
	<text transform="matrix(0.6479 0 0 0.6479 -159.1837 94.3358)" class="st6 st1 st18">漂亮</text>
	<text transform="matrix(0.6479 0 0 0.6479 48.8166 68.3353)" class="st6 st1 st18">最爱</text>
	<text transform="matrix(0.6479 0 0 0.6479 -223.1838 215.3358)" class="st6 st1 st18">惊喜</text>
	<text transform="matrix(0.6479 0 0 0.6479 -20.1835 122.3357)" class="st6 st1 st18">伟大</text>
	<text transform="matrix(0.6479 0 0 0.6479 -22.4335 151.3356)" class="st6 st1 st19">意外</text>
	<text transform="matrix(0.6479 0 0 0.6479 -219.4336 -32.6647)" class="st6 st1 st19">无聊</text>
	<text transform="matrix(0.6479 0 0 0.6479 43.3163 107.3357)" class="st6 st1 st20">心软</text>
	<text transform="matrix(0.6479 0 0 0.6479 -214.6838 92.3357)" class="st6 st1 st20">潇洒</text>
	<text transform="matrix(0.6479 0 0 0.6479 -86.6834 -28.6644)" class="st6 st1 st20">优雅</text>
	<text transform="matrix(0.6479 0 0 0.6479 169.5663 258.3357)" class="st6 st1 st21">成熟</text>
	<text transform="matrix(0.6479 0 0 0.6479 -273.4337 157.3357)" class="st6 st1 st21">幸运</text>
</g>
</svg>
