<?xml version="1.0" encoding="utf-8"?>
<!-- Generator: Adobe Illustrator 19.0.0, SVG Export Plug-In . SVG Version: 6.00 Build 0)  -->
<svg version="1.1" id="图层_1" xmlns="http://www.w3.org/2000/svg" xmlns:xlink="http://www.w3.org/1999/xlink" x="0px" y="0px"
	 viewBox="30 151 960 600" style="enable-background:new 30 151 960 600;" xml:space="preserve">
<style type="text/css">
	.st0{fill:#960618;}
	.st1{font-family:'STZhongsong';}
	.st2{font-size:135.7466px;}
	.st3{fill:#010156;}
	.st4{font-size:104.5249px;}
	.st5{fill:#960000;}
	.st6{font-size:82.8054px;}
	.st7{font-size:78.733px;}
	.st8{fill:#9B9B9B;}
	.st9{font-size:73.3032px;}
	.st10{font-size:70.5882px;}
	.st11{font-size:65.1584px;}
	.st12{fill:#CCCACA;}
	.st13{font-size:61.086px;}
	.st14{font-size:63px;}
	.st15{fill:#ACACAD;}
	.st16{font-size:59.7285px;}
	.st17{font-size:58.371px;}
	.st18{fill:#BFBFBF;}
	.st19{fill:#9A9A9B;}
	.st20{font-size:57.0136px;}
	.st21{fill:#A0A0A0;}
	.st22{font-size:55.6561px;}
	.st23{font-size:54.2986px;}
	.st24{font-size:52.9412px;}
	.st25{fill:#757575;}
	.st26{font-size:51.5837px;}
	.st27{font-size:50.2262px;}
</style>
<g transform="translate(480,300)scale(1.3574661016464233,1.3574661016464233)">
	<text transform="matrix(0.7367 0 0 0.7367 -12.8995 57.2363)" class="st0 st1 st2">快乐</text>
	<text transform="matrix(0.7367 0 0 0.7367 -157.6496 115.2365)" class="st3 st1 st4">寂寞</text>
	<text transform="matrix(0.7367 0 0 0.7367 -48.4897 234.4431)" class="st5 st1 st6">愉快</text>
	<text transform="matrix(0.7367 0 0 0.7367 -171.6496 222.6567)" class="st5 st1 st7">幸福</text>
	<text transform="matrix(0.7367 0 0 0.7367 85.1002 123.783)" class="st8 st1 st9">清楚</text>
	<text transform="matrix(0.7367 0 0 0.7367 -125.8995 43.2363)" class="st5 st1 st10">浪漫</text>
	<text transform="matrix(0.7367 0 0 0.7367 190.1003 132.7029)" class="st3 st1 st11">遗憾</text>
	<text transform="matrix(0.7367 0 0 0.7367 -188.8996 166.2365)" class="st8 st1 st11">重要</text>
	<text transform="matrix(0.7367 0 0 0.7367 -107.1497 -7.7638)" class="st12 st1 st13">缠绵</text>
	<text transform="matrix(0.7367 0 0 0.7367 2.3503 166.2364)" class="st3 st1 st13">孤独</text>
	<g>
		<text transform="matrix(0.7367 0 0 0.7367 -222.8064 38.2361)" class="st3 st1 st14">烦恼</text>
	</g>
	<text transform="matrix(0.7367 0 0 0.7367 166.0603 235.5833)" class="st8 st1 st13">温柔</text>
	<text transform="matrix(0.7367 0 0 0.7367 190.1003 -34.7637)" class="st15 st1 st16">珍惜</text>
	<text transform="matrix(0.7367 0 0 0.7367 -255.3528 218.2367)" class="st8 st1 st17">甜蜜</text>
	<text transform="matrix(0.7367 0 0 0.7367 97.8501 187.2363)" class="st18 st1 st17">最好</text>
	<text transform="matrix(0.7367 0 0 0.7367 -255.3528 104.283)" class="st19 st1 st20">沉默</text>
	<text transform="matrix(0.7367 0 0 0.7367 -7.3997 -29.7638)" class="st21 st1 st20">悲哀</text>
	<text transform="matrix(0.7367 0 0 0.7367 192.3506 56.2364)" class="st8 st1 st22">自由</text>
	<text transform="matrix(0.7367 0 0 0.7367 -192.8994 -53.7637)" class="st21 st1 st23">孤单</text>
	<text transform="matrix(0.7367 0 0 0.7367 -188.8994 275.5298)" class="st8 st1 st23">亲爱</text>
	<text transform="matrix(0.7367 0 0 0.7367 85.1001 -29.7638)" class="st15 st1 st23">完美</text>
	<text transform="matrix(0.7367 0 0 0.7367 -4.453 115.2366)" class="st8 st1 st23">一般</text>
	<text transform="matrix(0.7367 0 0 0.7367 -107.1498 -52.7637)" class="st21 st1 st24">伟大</text>
	<text transform="matrix(0.7367 0 0 0.7367 166.0602 5.2364)" class="st25 st1 st24">清醒</text>
	<text transform="matrix(0.7367 0 0 0.7367 -203.3596 -7.7637)" class="st12 st1 st26">灿烂</text>
	<text transform="matrix(0.7367 0 0 0.7367 -84.3996 166.2363)" class="st8 st1 st26">纯真</text>
	<text transform="matrix(0.7367 0 0 0.7367 -272.9863 159.1364)" class="st21 st1 st26">美好</text>
	<text transform="matrix(0.7367 0 0 0.7367 193.3507 180.9697)" class="st8 st1 st26">漂亮</text>
	<text transform="matrix(0.7367 0 0 0.7367 -84.3996 285.8432)" class="st8 st1 st26">残酷</text>
	<text transform="matrix(0.7367 0 0 0.7367 79.9499 235.5833)" class="st18 st1 st27">伤害</text>
</g>
</svg>
