<svg id="添加元素" xmlns="http://www.w3.org/2000/svg" width="21" height="21" viewBox="0 0 21 21">
  <g id="椭圆_23" data-name="椭圆 23" fill="none" stroke="#000" stroke-width="0.5">
    <circle cx="10.5" cy="10.5" r="10.5" stroke="none"/>
    <circle cx="10.5" cy="10.5" r="10.25" fill="none"/>
  </g>
  <path id="画笔" d="M162.014,70.387a1,1,0,0,0,.472.1.9.9,0,0,0,.49-.169,2.681,2.681,0,0,0,.317-.383c.391-.546,1.078-1.59,1.677-2.593a24.809,24.809,0,0,0,1.317-2.584,1.317,1.317,0,0,0,.072-.422.211.211,0,0,0-.124-.15.4.4,0,0,0-.22.037c-.168.092-.412.209-1.578,1.616-.812.98-1.814,2.294-2.4,3.039-.435.556-.462.942-.37,1.162A1.023,1.023,0,0,0,162.014,70.387ZM160.2,74.165a3.682,3.682,0,0,0,1.081-.392,2.23,2.23,0,0,0,.766-.761,1.773,1.773,0,0,0-.486-2.127,1.6,1.6,0,0,0-.911-.376,1.447,1.447,0,0,0-.838.177,1.6,1.6,0,0,0-.569,1.26,2.3,2.3,0,0,1-.2,1.133,2.155,2.155,0,0,1-1.142.768,1.18,1.18,0,0,0,.342.267A2.879,2.879,0,0,0,160.2,74.165Zm-.957.634c-.588.083-1.514.2-1.22.395,3.309,1.165,5.279-1.219,8.938-1.456C163.664,72.92,162.213,74.9,159.24,74.8Z" transform="translate(-151.838 -59.168)"/>
</svg>
