<svg xmlns="http://www.w3.org/2000/svg" width="21" height="21" viewBox="0 0 21 21">
  <g id="轴" transform="translate(-0.44)">
    <g id="椭圆_5" data-name="椭圆 5" transform="translate(0.44)" fill="none" stroke="#000" stroke-width="0.5">
      <circle cx="10.5" cy="10.5" r="10.5" stroke="none"/>
      <circle cx="10.5" cy="10.5" r="10.25" fill="none"/>
    </g>
    <g id="组_29" data-name="组 29" transform="translate(0 0.5)">
      <rect id="矩形_15" data-name="矩形 15" width="1" height="9" rx="0.5" transform="translate(8.44 6.5)"/>
      <rect id="矩形_16" data-name="矩形 16" width="1" height="9" rx="0.5" transform="translate(15.44 12.5) rotate(90)"/>
      <path id="多边形_1" data-name="多边形 1" d="M1.732.537a.3.3,0,0,1,.537,0L3.783,3.566A.3.3,0,0,1,3.515,4H.485a.3.3,0,0,1-.268-.434Z" transform="translate(6.94 4)"/>
      <path id="多边形_2" data-name="多边形 2" d="M1.732.537a.3.3,0,0,1,.537,0L3.783,3.566A.3.3,0,0,1,3.515,4H.485a.3.3,0,0,1-.268-.434Z" transform="translate(17.44 11) rotate(90)"/>
    </g>
  </g>
</svg>
