<svg xmlns="http://www.w3.org/2000/svg" xmlns:xlink="http://www.w3.org/1999/xlink" width="180" height="200" viewBox="0 0 180 200"><defs><clipPath id="b"><rect width="180" height="200"/></clipPath></defs><g id="a" clip-path="url(#b)"><g transform="translate(-1 95)"><rect width="42" height="42" transform="translate(1 1)" fill="none"/><g transform="translate(1.5 1.5)"><path d="M20,0A20,20,0,1,1,0,20,20,20,0,0,1,20,0Z" transform="translate(0.5 0.5)" fill="none" stroke="#fff" stroke-width="1"/><path d="M24.17,10a1.7,1.7,0,0,1,1.411.844l.059.125.628,1.548a.7.7,0,0,0,.556.417l.109.008h3.647a1.385,1.385,0,0,1,1.413,1.182L32,14.25V25.692a1.359,1.359,0,0,1-1.283,1.3L30.581,27H11.419a1.385,1.385,0,0,1-1.413-1.182L10,25.692V14.25a1.359,1.359,0,0,1,1.283-1.3l.136-.006H15.21a.722.722,0,0,0,.619-.333l.046-.092.628-1.548a1.686,1.686,0,0,1,1.333-.962L17.974,10ZM21,15a4.611,4.611,0,0,0-4.714,4.5,4.719,4.719,0,0,0,9.429,0A4.611,4.611,0,0,0,21,15Zm0,1.4a3.1,3.1,0,1,1-3.248,3.1A3.176,3.176,0,0,1,21,16.4ZM29.9,15a1,1,0,1,0,1.048,1A1.025,1.025,0,0,0,29.9,15Z" transform="translate(0 0.432)" fill="#fff"/></g></g><g transform="translate(-1 5)"><rect width="42" height="42" transform="translate(1 43)" fill="none"/><g transform="translate(1.5 43.5)"><g transform="translate(13.568 12.523)"><path d="M4.787,10.472s-2.2,1.214-2.288,3.116A4.361,4.361,0,0,1,.027,17.047c-.6.173,8.722.564,8.04-3.5l-3.28-3.075Zm4.095,1.291a.783.783,0,0,1,.192,1.047c-.233.244-.7.171-1.037-.163L5.791,10.472A.783.783,0,0,1,5.6,9.426c.233-.244.7-.171,1.037.163l2.246,2.175ZM16.673.337a1.2,1.2,0,0,0-1.392.093c-.7.479-5.745,5.449-7.935,7.744-.269.364-.45.646.839,1.954,1.089,1.1,1.6,1.032,2.147.555.918-.931,4.826-6.46,6.27-8.567C16.84,1.771,17.325.786,16.673.337Z" transform="translate(0 -0.145)" fill="#fff"/></g><circle cx="20" cy="20" r="20" transform="translate(0.5 0.5)" fill="none" stroke="#fff" stroke-width="1"/><g transform="translate(9.366 19.632)"><path d="M3.011,2.65c.055,1.271-1.1,2.315-1.116,3.634A3.79,3.79,0,0,0,3.654,9.73C.48,9.319.158,7.1.125,6.284.081,5.232,1.155,4.265,1.361,2.467A5.091,5.091,0,0,0,.991,0,3.76,3.76,0,0,1,3.011,2.65Z" transform="translate(-0.123)" fill="#fff" fill-rule="evenodd"/></g></g></g><g transform="translate(-1 -85)"><rect width="42" height="42" transform="translate(1 85)" fill="none"/><g transform="translate(1.5 85.5)"><circle cx="20" cy="20" r="20" transform="translate(0.5 0.5)" fill="none" stroke="#fff" stroke-width="1"/><g transform="translate(11.525 9.527)"><path d="M4,6.862a1,1,0,0,1,1,1v13a1,1,0,0,1-.6.917A12.548,12.548,0,0,1,0,18.486V7.862a1,1,0,0,1,1-1Z" transform="translate(0 0)" fill="#fff" fill-rule="evenodd"/><path d="M11,5.862a1,1,0,0,1,1,1v15.75a12.622,12.622,0,0,1-5,0V6.862a1,1,0,0,1,1-1Z" transform="translate(0 0)" fill="#fff" fill-rule="evenodd"/><path d="M18,6.862a1,1,0,0,1,1,1V18.486a12.538,12.538,0,0,1-4.4,3.292,1,1,0,0,1-.6-.916v-13a1,1,0,0,1,1-1Z" transform="translate(0 0)" fill="#fff" fill-rule="evenodd"/><path d="M0,5.862l2.5-1.6L9.5,0l7,4.259,2.437-1.254" transform="translate(0 0)" fill="none" stroke="#fff" stroke-linecap="round" stroke-linejoin="round" stroke-width="1.4" fill-rule="evenodd"/></g></g></g><g transform="translate(0 15)"><rect width="42" height="42" transform="translate(0 129)" fill="none"/><g transform="translate(0.5 129.5)"><circle cx="20" cy="20" r="20" transform="translate(0.5 0.5)" fill="none" stroke="#fff" stroke-width="1"/><path d="M20.841,9A11.841,11.841,0,1,1,9,20.841,11.845,11.845,0,0,1,20.841,9Zm-.147,4.176a.731.731,0,0,0-.731.731h0v7.309a.522.522,0,0,0,.522.522h7.1a.731.731,0,0,0,0-1.462H21.424V13.907A.731.731,0,0,0,20.694,13.176Z" fill="#fff"/></g></g><g transform="translate(0 10)"><rect width="15" height="15" transform="translate(60 30)" fill="none"/><g transform="translate(59.622 29.635)"><path d="M9.371,2.365a.955.955,0,0,1,.779.467l.051.106.354.915a.4.4,0,0,0,.293.243l.082.008h2.057a.8.8,0,0,1,.793.668l.007.1v6.761a.785.785,0,0,1-.692.766l-.108.007H2.179a.8.8,0,0,1-.793-.668l-.007-.1V4.876a.785.785,0,0,1,.692-.766L2.179,4.1H4.317a.4.4,0,0,0,.339-.18l.036-.071.354-.915a.957.957,0,0,1,.717-.564l.112-.009ZM7.5,5.5A2.5,2.5,0,1,0,10,8,2.5,2.5,0,0,0,7.5,5.5Zm0,1A1.5,1.5,0,1,1,6,8,1.5,1.5,0,0,1,7.5,6.5Zm5.106-1.181a.591.591,0,1,0,.591.591A.591.591,0,0,0,12.606,5.319Z"/></g></g><g transform="translate(0 5)"><rect width="15" height="15" transform="translate(60 15)" fill="none"/><g transform="translate(60.111 16.059)"><g transform="translate(0.088 1.104)"><g transform="translate(2.732 0)"><path d="M3.4,7.425s-1.564.86-1.624,2.209A3.093,3.093,0,0,1,.02,12.087c-.424.123,6.192.4,5.708-2.481L3.4,7.425Zm2.907.916a.555.555,0,0,1,.136.742.538.538,0,0,1-.736-.116L4.111,7.425a.555.555,0,0,1-.136-.742.538.538,0,0,1,.736.116L6.306,8.341ZM11.837.24a.852.852,0,0,0-.988.066c-.5.339-4.079,3.863-5.633,5.49-.191.258-.32.458.6,1.386.773.783,1.133.732,1.524.394C7.987,6.915,10.761,3,11.786,1.5,11.955,1.256,12.3.558,11.837.24Z" transform="translate(0 -0.104)"/></g><g transform="translate(0 5.004)"><path d="M2.123,1.868c.039.9-.773,1.632-.786,2.561a2.671,2.671,0,0,0,1.24,2.429A2.479,2.479,0,0,1,.089,4.429c-.03-.741.726-1.423.872-2.69A3.588,3.588,0,0,0,.7,0,2.65,2.65,0,0,1,2.123,1.868Z" transform="translate(-0.088)" fill-rule="evenodd"/></g></g></g></g><g transform="translate(0 15)"><rect width="15" height="15" transform="translate(60 45)" fill="none"/><g transform="translate(60 45)"><g transform="translate(1 1)"><path d="M6.5,0A6.5,6.5,0,1,1,0,6.5,6.5,6.5,0,0,1,6.5,0Zm0,2a.5.5,0,0,0-.5.5H6v4a.5.5,0,0,0,.5.5h4a.5.5,0,0,0,0-1H7V2.5A.5.5,0,0,0,6.5,2Z"/></g></g></g><rect width="15" height="15" transform="translate(60)" fill="none"/><g transform="translate(60.001 -0.006)"><path d="M4.5,4.5A.5.5,0,0,1,5,5v8.573A7.508,7.508,0,0,1,2,11.6L2,5a.5.5,0,0,1,.5-.5Z" fill-rule="evenodd"/><path d="M8.5,4a.5.5,0,0,1,.5.5v9.35a7.575,7.575,0,0,1-3,0V4.5A.5.5,0,0,1,6.5,4Z" fill-rule="evenodd"/><path d="M12.5,4.5A.5.5,0,0,1,13,5v6.6a7.509,7.509,0,0,1-3,1.975V5a.5.5,0,0,1,.5-.5Z" fill-rule="evenodd"/><path d="M2,3.7l5.5-2.7,4,2.157L13,2.649" fill="none" stroke="#000" stroke-linecap="round" stroke-linejoin="round" stroke-width="1" fill-rule="evenodd"/></g><rect width="16" height="16" transform="translate(100 20)" fill="none"/><g transform="translate(101 20.929)"><g transform="translate(0 0.071)"><g transform="translate(4.516)"><path d="M1.544,8.707A.725.725,0,0,1,1.031,8.5a3.378,3.378,0,0,1,0-4.789L3.71,1.041A3.4,3.4,0,0,1,8.524,5.831L7.3,7.049a.728.728,0,0,1-1.026,0,.719.719,0,0,1,0-1.021L7.5,4.81A1.948,1.948,0,0,0,4.736,2.062L2.057,4.727a1.939,1.939,0,0,0,0,2.748.719.719,0,0,1,0,1.02.727.727,0,0,1-.514.212" transform="translate(-0.036 -0.049)" fill="#007dff" fill-rule="evenodd"/></g><path d="M3.4,13.951A3.387,3.387,0,0,1,1,8.169L2.22,6.951a.728.728,0,0,1,1.026,0,.719.719,0,0,1,0,1.021L2.021,9.19a1.948,1.948,0,0,0,2.762,2.748L7.462,9.273a1.939,1.939,0,0,0,0-2.748.719.719,0,0,1,0-1.021.728.728,0,0,1,1.026,0,3.378,3.378,0,0,1,0,4.789L5.81,12.959a3.391,3.391,0,0,1-2.407.992" transform="translate(0 -0.019)" fill="#007dff" fill-rule="evenodd"/></g></g><rect width="16" height="16" transform="translate(100)" fill="none"/><path d="M1981.845,1103.485h0l-2.341-2.339a6.519,6.519,0,1,1,1.153-1.152l2.341,2.339Zm-6.332-12.763a5.288,5.288,0,1,0,3.74,1.548,5.29,5.29,0,0,0-3.74-1.548Z" transform="translate(-1867.998 -1088.486)" fill="#1d1d1d" stroke="rgba(0,0,0,0)" stroke-miterlimit="10" stroke-width="1"/><rect width="32" height="32" transform="translate(140)" fill="none"/><path d="M416.423-403.5a1.065,1.065,0,0,1-1.065-1.065h0a1.065,1.065,0,0,1,1.065-1.065H420.3l-6.672-6.915a1.066,1.066,0,0,1-.288-1.045,1.065,1.065,0,0,1,.777-.756,1.065,1.065,0,0,1,1.037.318l6.582,6.822V-411a1.065,1.065,0,0,1,1.064-1.063A1.064,1.064,0,0,1,423.858-411v6.432h0a1.064,1.064,0,0,1-1.064,1.065Zm-17.323-.175H399a1.065,1.065,0,0,1-1-1.063v-6.371a1.064,1.064,0,0,1,1.065-1.064h0a1.064,1.064,0,0,1,1.065,1.064v3.873l6.915-6.672a1.062,1.062,0,0,1,1.045-.288,1.065,1.065,0,0,1,.756.777,1.065,1.065,0,0,1-.318,1.037l-6.823,6.584H405.5a1.064,1.064,0,0,1,1.064,1.065,1.064,1.064,0,0,1-1.064,1.064Zm7.787-15.3-6.581-6.82V-422a1.064,1.064,0,0,1-1.064,1.065A1.065,1.065,0,0,1,398.177-422v-6.432h0a1.064,1.064,0,0,1,1.065-1.064h6.371a1.064,1.064,0,0,1,1.064,1.064h0a1.064,1.064,0,0,1-1.064,1.064h-3.874l6.672,6.916a1.063,1.063,0,0,1,.289,1.045,1.066,1.066,0,0,1-.778.755,1.06,1.06,0,0,1-.25.03,1.065,1.065,0,0,1-.786-.349Zm7.022.136a1.064,1.064,0,0,1-.755-.778,1.064,1.064,0,0,1,.318-1.036l6.821-6.582H416.5a1.064,1.064,0,0,1-1.065-1.064,1.065,1.065,0,0,1,1.065-1.065h6.436a1.064,1.064,0,0,1,.755.314,1.064,1.064,0,0,1,.309.756v6.371a1.064,1.064,0,0,1-1.064,1.065h0a1.064,1.064,0,0,1-1.064-1.065V-425.8l-6.916,6.673a1.064,1.064,0,0,1-.766.325,1.066,1.066,0,0,1-.282-.033Z" transform="translate(-255 432.496)" fill="#fff"/></g></svg>