<svg id="lianjie-2" xmlns="http://www.w3.org/2000/svg" width="14" height="14" viewBox="0 0 14 14">
  <path id="路径" d="M8.4.495a3.267,3.267,0,0,0-.326-.3h0A.626.626,0,0,0,7.628,0a.672.672,0,0,0-.649.693.718.718,0,0,0,.151.445h0a.665.665,0,0,0,.16.147c.061.054.121.107.177.167l.053.057a2.033,2.033,0,0,1-.2,2.67L4.452,7.241a1.65,1.65,0,0,1-2.438,0L1.96,7.183a1.93,1.93,0,0,1,0-2.6L3.228,3.228a.77.77,0,0,0,.267-.589.73.73,0,0,0-.7-.752.67.67,0,0,0-.4.13v0l-.014.013a.73.73,0,0,0-.134.134L.929,3.478a3.576,3.576,0,0,0,0,4.808l.053.057a3.052,3.052,0,0,0,4.5,0L8.352,5.279a3.479,3.479,0,0,0,.1-4.728Z" transform="translate(0 4.667)" fill="#1783ff"/>
  <path id="路径-2" data-name="路径" d="M8.4.973,8.349.92a3.224,3.224,0,0,0-4.511,0L.965,3.762A2.865,2.865,0,0,0,.9,7.988l.053.051c.056.056.115.108.175.159a.615.615,0,0,0,.15.121h0A.615.615,0,0,0,2.2,7.793a.6.6,0,0,0-.061-.264h0A1.331,1.331,0,0,0,1.8,7.136l-.053-.051A1.582,1.582,0,0,1,2,4.785L4.874,1.943a1.741,1.741,0,0,1,2.441,0L7.369,2a1.7,1.7,0,0,1,0,2.415L6.1,5.663a.689.689,0,0,0-.284.557.7.7,0,0,0,1.067.59l0,0,.02-.018a.7.7,0,0,0,.159-.145L8.4,5.433A3.137,3.137,0,0,0,8.4.973Z" transform="translate(4.667)" fill="#1783ff"/>
</svg>
