<svg id="元素本身" xmlns="http://www.w3.org/2000/svg" width="21" height="21" viewBox="0 0 21 21">
  <g id="椭圆_5" data-name="椭圆 5" transform="translate(0)" fill="none" stroke="#000" stroke-width="0.5">
    <circle cx="10.5" cy="10.5" r="10.5" stroke="none"/>
    <circle cx="10.5" cy="10.5" r="10.25" fill="none"/>
  </g>
  <path id="mark2" d="M74.061,36.44l-3.692,2a1.071,1.071,0,0,0-.549.956v3.875a.518.518,0,0,0,.748.5l3.692-2a1.087,1.087,0,0,0,.549-.956V36.947A.522.522,0,0,0,74.061,36.44Zm-5.621,2-3.692-2a.521.521,0,0,0-.748.5V40.83a1.071,1.071,0,0,0,.549.956l3.692,2a.525.525,0,0,0,.748-.507V39.391A1.071,1.071,0,0,0,68.44,38.435Zm5.28-2.9a.408.408,0,0,0,.241-.4.4.4,0,0,0-.241-.4l-3.758-1.962a1.268,1.268,0,0,0-1.131,0l-3.758,1.954a.458.458,0,0,0,0,.807l3.758,1.954a1.268,1.268,0,0,0,1.131,0Z" transform="translate(-59 -27.64)"/>
</svg>
