<?xml version="1.0" standalone="no"?><!DOCTYPE svg PUBLIC "-//W3C//DTD SVG 1.1//EN" "http://www.w3.org/Graphics/SVG/1.1/DTD/svg11.dtd"><svg t="1614167450680" class="icon" viewBox="0 0 1024 1024" version="1.1" xmlns="http://www.w3.org/2000/svg" p-id="2348" width="32" height="32" xmlns:xlink="http://www.w3.org/1999/xlink"><defs><style type="text/css"></style></defs><path d="M769.792 476.032 416.48 125.92c-18.848-18.656-49.216-18.528-67.872 0.32-18.656 18.816-18.528 49.216 0.32 67.872l319.456 316.576-318.176 321.056c-18.656 18.816-18.528 49.216 0.32 67.872 9.344 9.28 21.568 13.92 33.792 13.92 12.352 0 24.704-4.736 34.08-14.208l350.112-353.312c0.512-0.512 0.672-1.248 1.184-1.792 0.128-0.128 0.288-0.16 0.416-0.288C788.736 525.088 788.64 494.688 769.792 476.032z" p-id="2349"></path></svg>