<svg xmlns="http://www.w3.org/2000/svg" width="10.818" height="13.531" viewBox="0 0 10.818 13.531">
  <g id="添加元素" transform="translate(-6.062 -5.014)">
    <path id="画笔" d="M162.813,71.593a1.192,1.192,0,0,0,.564.119,1.081,1.081,0,0,0,.585-.2,3.2,3.2,0,0,0,.379-.458c.467-.653,1.288-1.9,2-3.1a29.629,29.629,0,0,0,1.573-3.086,1.573,1.573,0,0,0,.086-.5.252.252,0,0,0-.148-.18.472.472,0,0,0-.263.044c-.2.11-.492.249-1.885,1.93-.97,1.171-2.166,2.74-2.861,3.63-.519.665-.551,1.125-.441,1.388A1.222,1.222,0,0,0,162.813,71.593ZM160.644,76.1a4.4,4.4,0,0,0,1.291-.468,2.663,2.663,0,0,0,.915-.909,2.117,2.117,0,0,0-.581-2.541,1.917,1.917,0,0,0-1.088-.449,1.728,1.728,0,0,0-1,.211,1.908,1.908,0,0,0-.68,1.5,2.749,2.749,0,0,1-.237,1.353,2.574,2.574,0,0,1-1.364.917,1.409,1.409,0,0,0,.408.319A3.438,3.438,0,0,0,160.644,76.1Zm-1.143.757c-.7.1-1.809.24-1.457.471,3.952,1.391,6.3-1.456,10.675-1.738C164.783,74.618,163.051,76.977,159.5,76.861Z" transform="translate(-151.838 -59.168)"/>
  </g>
</svg>
