<svg xmlns="http://www.w3.org/2000/svg" width="12.94" height="10.216" viewBox="0 0 12.94 10.216">
  <g id="镜头" transform="translate(-5.027 -6.453)">
    <path id="相机" d="M6.47,4.172A1.625,1.625,0,1,0,8.115,5.8,1.625,1.625,0,0,0,6.47,4.172Zm4.942-2.156a1.183,1.183,0,0,1-1.154-.921A1.405,1.405,0,0,0,8.888,0H4.052a1.405,1.405,0,0,0-1.37,1.094,1.183,1.183,0,0,1-1.154.921A1.52,1.52,0,0,0,0,3.525V8.707a1.52,1.52,0,0,0,1.528,1.509h9.884A1.52,1.52,0,0,0,12.94,8.707V3.525A1.52,1.52,0,0,0,11.412,2.016ZM6.47,8.469A2.671,2.671,0,1,1,9.174,5.8,2.671,2.671,0,0,1,6.47,8.469Zm0,0" transform="translate(5.027 6.453)"/>
  </g>
</svg>
