<svg xmlns="http://www.w3.org/2000/svg" width="26" height="26" viewBox="0 0 26 26">
  <path id="联合_1" data-name="联合 1" d="M416.423-403.5a1.065,1.065,0,0,1-1.065-1.065v0a1.065,1.065,0,0,1,1.065-1.065h3.872l-6.672-6.915a1.066,1.066,0,0,1-.288-1.045,1.065,1.065,0,0,1,.777-.756,1.065,1.065,0,0,1,1.037.318l6.582,6.822V-411a1.065,1.065,0,0,1,1.064-1.063A1.064,1.064,0,0,1,423.858-411v6.4c0,.005,0,.011,0,.016s0,.011,0,.016v0a1.064,1.064,0,0,1-1.064,1.065Zm-17.323-.175c-.034,0-.068,0-.1,0a1.065,1.065,0,0,1-1-1.063v-6.371a1.064,1.064,0,0,1,1.065-1.064h0a1.064,1.064,0,0,1,1.065,1.064v3.873l6.915-6.672a1.062,1.062,0,0,1,1.045-.288,1.065,1.065,0,0,1,.756.777,1.065,1.065,0,0,1-.318,1.037l-6.823,6.584H405.5a1.064,1.064,0,0,1,1.064,1.065,1.064,1.064,0,0,1-1.064,1.064Zm7.787-15.3-6.581-6.82V-422a1.064,1.064,0,0,1-1.064,1.065A1.065,1.065,0,0,1,398.177-422v-6.4c0-.005,0-.011,0-.016s0-.011,0-.016v0a1.064,1.064,0,0,1,1.065-1.064h6.371a1.064,1.064,0,0,1,1.064,1.064v0a1.064,1.064,0,0,1-1.064,1.064h-3.874l6.672,6.916a1.063,1.063,0,0,1,.289,1.045,1.066,1.066,0,0,1-.778.755,1.061,1.061,0,0,1-.25.03A1.065,1.065,0,0,1,406.886-418.971Zm7.022.136a1.064,1.064,0,0,1-.755-.778,1.064,1.064,0,0,1,.318-1.036l6.821-6.582H416.5a1.064,1.064,0,0,1-1.065-1.064,1.065,1.065,0,0,1,1.065-1.065h6.436A1.064,1.064,0,0,1,424-428.294v6.371a1.064,1.064,0,0,1-1.064,1.065h0a1.064,1.064,0,0,1-1.064-1.065V-425.8l-6.916,6.673a1.064,1.064,0,0,1-.766.325A1.065,1.065,0,0,1,413.908-418.835Z" transform="translate(-398 429.5)" fill="#fff"/>
</svg>
